<svg width="213" height="87" viewBox="0 0 213 87" fill="none" xmlns="http://www.w3.org/2000/svg">
<path d="M90.7954 77.1561H69.3642L27.3262 0.429932H48.5925L90.7954 77.1561Z" fill="#FEFEFE"/>
<path d="M13.9729 79.5699C21.3477 79.5699 27.3262 74.2649 27.3262 67.7209C27.3262 61.1768 21.3477 55.8718 13.9729 55.8718C6.59809 55.8718 0.619629 61.1768 0.619629 67.7209C0.619629 74.2649 6.59809 79.5699 13.9729 79.5699Z" fill="#FAFAFA"/>
<path d="M133.236 76C132.751 74.5787 132.248 73.1747 131.728 71.788C131.208 70.4013 130.705 68.98 130.22 67.524H115.036C114.551 68.98 114.048 70.4187 113.528 71.84C113.043 73.2267 112.557 74.6133 112.072 76H105.26C106.612 72.152 107.895 68.5987 109.108 65.34C110.321 62.0813 111.5 58.996 112.644 56.084C113.823 53.172 114.984 50.3987 116.128 47.764C117.272 45.1293 118.451 42.5293 119.664 39.964H125.852C127.065 42.5293 128.244 45.1293 129.388 47.764C130.532 50.3987 131.676 53.172 132.82 56.084C133.999 58.996 135.195 62.0813 136.408 65.34C137.656 68.5987 138.956 72.152 140.308 76H133.236ZM122.628 46.932C121.831 48.7693 120.912 51.0053 119.872 53.64C118.867 56.2747 117.809 59.1347 116.7 62.22H128.556C127.447 59.1347 126.372 56.2573 125.332 53.588C124.292 50.9187 123.391 48.7 122.628 46.932ZM166.199 75.168C164.985 75.48 163.408 75.792 161.467 76.104C159.525 76.4507 157.393 76.624 155.071 76.624C152.887 76.624 151.049 76.312 149.559 75.688C148.103 75.064 146.924 74.1973 146.023 73.088C145.156 71.9787 144.532 70.6613 144.151 69.136C143.769 67.576 143.579 65.8773 143.579 64.04V48.804H149.871V63.052C149.871 65.964 150.287 68.044 151.119 69.292C151.985 70.54 153.476 71.164 155.591 71.164C156.353 71.164 157.151 71.1293 157.983 71.06C158.849 70.9907 159.491 70.904 159.907 70.8V48.804H166.199V75.168ZM183.983 57.696L189.755 48.804H196.359L187.415 61.648C189.287 64.0747 191.072 66.536 192.771 69.032C194.504 71.4933 195.926 73.816 197.035 76H190.223C189.911 75.3413 189.495 74.596 188.975 73.764C188.49 72.8973 187.952 72.0133 187.363 71.112C186.808 70.176 186.219 69.2573 185.595 68.356C184.971 67.4547 184.364 66.6053 183.775 65.808C182.562 67.368 181.366 69.1013 180.187 71.008C179.043 72.88 178.09 74.544 177.327 76H170.879C171.399 74.96 172.023 73.8507 172.751 72.672C173.479 71.4933 174.259 70.2973 175.091 69.084C175.923 67.836 176.772 66.6053 177.639 65.392C178.54 64.144 179.424 62.9653 180.291 61.856L171.295 48.804H178.211L183.983 57.696ZM208.075 76H201.783V48.804H208.075V76ZM208.751 40.848C208.751 42.0267 208.369 42.9627 207.607 43.656C206.844 44.3493 205.943 44.696 204.903 44.696C203.828 44.696 202.909 44.3493 202.147 43.656C201.384 42.9627 201.003 42.0267 201.003 40.848C201.003 39.6347 201.384 38.6813 202.147 37.988C202.909 37.2947 203.828 36.948 204.903 36.948C205.943 36.948 206.844 37.2947 207.607 37.988C208.369 38.6813 208.751 39.6347 208.751 40.848Z" fill="#FBFBFB"/>
</svg>
