<svg width="339" height="131" viewBox="0 0 339 131" fill="none" xmlns="http://www.w3.org/2000/svg">
<path d="M54.632 13.32C57.1067 13.32 59.7733 13.768 62.632 14.664C65.5333 15.56 67.9013 16.6907 69.736 18.056L67.048 23.752C65.1707 23.0267 63.1013 22.664 60.84 22.664C54.5253 22.664 51.368 26.3333 51.368 33.672C51.368 37.2133 52.2213 39.9867 53.928 41.992C55.6773 43.9547 57.768 44.936 60.2 44.936C62.6747 44.936 64.9787 44.424 67.112 43.4L69.992 48.904C65.6827 52.0613 60.5413 53.64 54.568 53.64C48.5947 53.64 43.7093 51.8907 39.912 48.392C36.1573 44.8933 34.28 39.88 34.28 33.352C34.28 26.7813 36.136 21.8107 39.848 18.44C43.56 15.0267 48.488 13.32 54.632 13.32ZM101.665 53L99.105 46.536H82.785L80.353 53H71.265L82.081 14.216H104.865L115.681 53H101.665ZM95.841 38.216L90.785 25.416L85.921 38.216H95.841ZM145.271 28.808V34.76L134.519 37.448L132.983 53H120.503L116.663 14.216H146.103L148.087 22.152L135.991 22.92L135.351 28.808H145.271ZM169.799 38.088C169.799 40.6907 170.225 42.4613 171.079 43.4C171.932 44.296 172.999 44.744 174.279 44.744C176.284 44.744 178.311 44.4027 180.359 43.72L181.319 43.4L184.071 48.904C183.687 49.2453 183.111 49.6933 182.343 50.248C181.575 50.76 179.847 51.464 177.159 52.36C174.513 53.2133 171.761 53.64 168.903 53.64C166.087 53.64 163.719 53.2347 161.799 52.424C159.879 51.6133 158.407 50.6747 157.383 49.608C156.359 48.4987 155.527 47.048 154.887 45.256C154.247 43.4213 153.82 41.864 153.607 40.584C153.436 39.304 153.287 37.704 153.159 35.784L151.623 14.216H180.423L182.215 21.896L171.335 22.856L170.695 29.064H179.271L180.551 35.08L169.799 37.768V38.088Z" fill="url(#paint0_linear_42_65)"/>
<path d="M33 59.4H185.031V62.6H33V59.4Z" fill="url(#paint1_linear_42_65)"/>
<path d="M134.73 93.648L133.514 106H121.034L117.194 67.216H137.354L136.202 78.736L146.634 67.216H157.834L147.018 83.792L160.01 106H147.466C141.492 100.24 137.247 96.1227 134.73 93.648ZM172.208 106.64C168.922 106.64 166.213 105.68 164.08 103.76C161.989 101.84 160.944 99.1307 160.944 95.632C160.944 92.0907 162.138 89.5307 164.528 87.952C166.917 86.3307 169.797 85.52 173.168 85.52C176.538 85.52 179.461 86.0533 181.936 87.12C181.381 83.5787 179.141 81.808 175.216 81.808C173.424 81.808 171.205 82.1707 168.56 82.896L166.96 77.136C170.8 75.5573 174.704 74.768 178.672 74.768C190.106 74.768 195.824 79.632 195.824 89.36C195.824 92.688 195.44 97.296 194.672 103.184L194.352 106H183.792L183.408 102.48C180.506 105.253 176.773 106.64 172.208 106.64ZM177.968 98.704C179.888 98.704 181.53 98.1707 182.896 97.104L182.512 92.88C181.445 92.1547 180.25 91.792 178.928 91.792C177.648 91.792 176.581 92.112 175.728 92.752C174.917 93.392 174.512 94.1813 174.512 95.12C174.512 96.0587 174.832 96.8907 175.472 97.616C176.112 98.3413 176.944 98.704 177.968 98.704ZM213.847 79.824C216.108 76.4533 218.903 74.768 222.231 74.768C223.809 74.768 225.26 75.152 226.583 75.92L225.047 86.416C223.34 85.2213 221.42 84.624 219.287 84.624C217.239 84.624 215.852 85.4773 215.127 87.184C214.7 88.2507 214.423 89.2747 214.295 90.256L213.079 106H201.559L199.639 75.664H212.247L213.847 79.824ZM239.458 106.64C236.172 106.64 233.463 105.68 231.33 103.76C229.239 101.84 228.194 99.1307 228.194 95.632C228.194 92.0907 229.388 89.5307 231.778 87.952C234.167 86.3307 237.047 85.52 240.418 85.52C243.788 85.52 246.711 86.0533 249.186 87.12C248.631 83.5787 246.391 81.808 242.466 81.808C240.674 81.808 238.455 82.1707 235.81 82.896L234.21 77.136C238.05 75.5573 241.954 74.768 245.922 74.768C257.356 74.768 263.074 79.632 263.074 89.36C263.074 92.688 262.69 97.296 261.922 103.184L261.602 106H251.042L250.658 102.48C247.756 105.253 244.023 106.64 239.458 106.64ZM245.218 98.704C247.138 98.704 248.78 98.1707 250.146 97.104L249.762 92.88C248.695 92.1547 247.5 91.792 246.178 91.792C244.898 91.792 243.831 92.112 242.978 92.752C242.167 93.392 241.762 94.1813 241.762 95.12C241.762 96.0587 242.082 96.8907 242.722 97.616C243.362 98.3413 244.194 98.704 245.218 98.704ZM291.593 106C286.515 101.093 282.931 97.616 280.841 95.568L280.393 106H268.617L266.889 64.464H282.121L281.353 84.176L287.817 75.664H300.745L291.721 88.336L302.025 106H291.593Z" fill="url(#paint2_linear_42_65)"/>
<path d="M115.594 112.4H301.385V115.6H115.594V112.4Z" fill="url(#paint3_linear_42_65)"/>
<defs>
<linearGradient id="paint0_linear_42_65" x1="109" y1="0" x2="109" y2="68" gradientUnits="userSpaceOnUse">
<stop offset="0.51" stop-color="#FFB800"/>
<stop offset="1" stop-color="#D7FF39" stop-opacity="0"/>
</linearGradient>
<linearGradient id="paint1_linear_42_65" x1="109" y1="0" x2="109" y2="68" gradientUnits="userSpaceOnUse">
<stop offset="0.51" stop-color="#FFB800"/>
<stop offset="1" stop-color="#D7FF39" stop-opacity="0"/>
</linearGradient>
<linearGradient id="paint2_linear_42_65" x1="208.5" y1="43" x2="208.5" y2="131" gradientUnits="userSpaceOnUse">
<stop offset="0.515" stop-color="#FF2E00" stop-opacity="0.74"/>
<stop offset="1" stop-color="#EDB900" stop-opacity="0"/>
</linearGradient>
<linearGradient id="paint3_linear_42_65" x1="208.5" y1="43" x2="208.5" y2="131" gradientUnits="userSpaceOnUse">
<stop offset="0.515" stop-color="#FF2E00" stop-opacity="0.74"/>
<stop offset="1" stop-color="#EDB900" stop-opacity="0"/>
</linearGradient>
</defs>
</svg>
