<svg width="215" height="68" viewBox="0 0 215 68" fill="none" xmlns="http://www.w3.org/2000/svg">
<path d="M60.5525 46.536C63.4965 46.536 65.7792 44.9787 67.4005 41.864C69.0218 38.7493 69.8325 35.4853 69.8325 32.072C69.8325 28.616 69.2138 25.864 67.9765 23.816C66.7392 21.768 65.1392 20.744 63.1765 20.744H62.7925L60.1685 46.536H60.5525ZM60.2965 53H47.7525L43.9125 14.216H62.7925C72.3072 14.216 78.8565 16.8187 82.4405 22.024C84.3178 24.7973 85.2565 28.0827 85.2565 31.88C85.2565 45.96 76.9365 53 60.2965 53ZM104.803 46.536C107.747 46.536 110.029 44.9787 111.651 41.864C113.272 38.7493 114.083 35.4853 114.083 32.072C114.083 28.616 113.464 25.864 112.227 23.816C110.989 21.768 109.389 20.744 107.427 20.744H107.043L104.419 46.536H104.803ZM104.547 53H92.0025L88.1625 14.216H107.043C116.557 14.216 123.107 16.8187 126.691 22.024C128.568 24.7973 129.507 28.0827 129.507 31.88C129.507 45.96 121.187 53 104.547 53ZM153.725 33.608C155.687 33.608 157.245 33.0107 158.397 31.816C159.549 30.6213 160.125 29.1707 160.125 27.464C160.125 25.7147 159.57 24.4133 158.461 23.56C157.394 22.664 156.007 22.216 154.301 22.216H151.741L150.653 33.608H153.725ZM160.957 14.216C165.522 14.216 169.17 15.304 171.901 17.48C174.674 19.6133 176.061 22.792 176.061 27.016C176.061 28.552 175.741 30.024 175.101 31.432C174.461 32.7973 173.693 33.9067 172.797 34.76C170.919 36.4667 169.191 37.6827 167.613 38.408L166.653 38.792L173.565 53H162.365L149.949 40.52L148.733 53H136.253L132.413 14.216H160.957Z" fill="#0F20BB"/>
</svg>
