<svg width="291" height="80" viewBox="0 0 291 80" fill="none" xmlns="http://www.w3.org/2000/svg">
<path d="M90.5255 62.9898C88.3389 62.9898 86.3255 62.6432 84.4855 61.9498C82.6722 61.2298 81.0855 60.2298 79.7255 58.9498C78.3655 57.6432 77.3122 56.1098 76.5655 54.3498C75.8189 52.5898 75.4455 50.6698 75.4455 48.5898C75.4455 46.5098 75.8189 44.5898 76.5655 42.8298C77.3122 41.0698 78.3655 39.5498 79.7255 38.2698C81.1122 36.9632 82.7255 35.9632 84.5655 35.2698C86.4055 34.5498 88.4189 34.1898 90.6055 34.1898C92.9789 34.1898 95.1122 34.5765 97.0055 35.3498C98.9255 36.1232 100.539 37.2565 101.846 38.7498L98.5655 41.9498C97.4722 40.8565 96.2855 40.0565 95.0055 39.5498C93.7522 39.0165 92.3655 38.7498 90.8455 38.7498C89.3789 38.7498 88.0189 38.9898 86.7655 39.4698C85.5122 39.9498 84.4322 40.6298 83.5255 41.5098C82.6189 42.3898 81.9122 43.4298 81.4055 44.6298C80.9255 45.8298 80.6855 47.1498 80.6855 48.5898C80.6855 50.0032 80.9255 51.3098 81.4055 52.5098C81.9122 53.7098 82.6189 54.7632 83.5255 55.6698C84.4322 56.5498 85.4989 57.2298 86.7255 57.7098C87.9522 58.1898 89.3122 58.4298 90.8055 58.4298C92.1922 58.4298 93.5255 58.2165 94.8055 57.7898C96.1122 57.3365 97.3522 56.5898 98.5255 55.5498L101.486 59.4298C100.019 60.6032 98.3122 61.4965 96.3655 62.1098C94.4455 62.6965 92.4989 62.9898 90.5255 62.9898ZM96.5655 58.7498V48.2698H101.486V59.4298L96.5655 58.7498ZM107.864 62.5898V41.2298H112.624V47.1098L112.064 45.3898C112.704 43.9498 113.704 42.8565 115.064 42.1098C116.451 41.3632 118.171 40.9898 120.224 40.9898V45.7498C120.011 45.6965 119.811 45.6698 119.624 45.6698C119.437 45.6432 119.251 45.6298 119.064 45.6298C117.171 45.6298 115.664 46.1898 114.544 47.3098C113.424 48.4032 112.864 50.0432 112.864 52.2298V62.5898H107.864ZM136.102 62.5898V58.2698L135.822 57.3498V49.7898C135.822 48.3232 135.382 47.1898 134.502 46.3898C133.622 45.5632 132.289 45.1498 130.502 45.1498C129.302 45.1498 128.115 45.3365 126.942 45.7098C125.795 46.0832 124.822 46.6032 124.022 47.2698L122.062 43.6298C123.209 42.7498 124.569 42.0965 126.142 41.6698C127.742 41.2165 129.395 40.9898 131.102 40.9898C134.195 40.9898 136.582 41.7365 138.262 43.2298C139.969 44.6965 140.822 46.9765 140.822 50.0698V62.5898H136.102ZM129.382 62.8698C127.782 62.8698 126.382 62.6032 125.182 62.0698C123.982 61.5098 123.049 60.7498 122.382 59.7898C121.742 58.8032 121.422 57.6965 121.422 56.4698C121.422 55.2698 121.702 54.1898 122.262 53.2298C122.849 52.2698 123.795 51.5098 125.102 50.9498C126.409 50.3898 128.142 50.1098 130.302 50.1098H136.502V53.4298H130.662C128.955 53.4298 127.809 53.7098 127.222 54.2698C126.635 54.8032 126.342 55.4698 126.342 56.2698C126.342 57.1765 126.702 57.8965 127.422 58.4298C128.142 58.9632 129.142 59.2298 130.422 59.2298C131.649 59.2298 132.742 58.9498 133.702 58.3898C134.689 57.8298 135.395 57.0032 135.822 55.9098L136.662 58.9098C136.182 60.1632 135.315 61.1365 134.062 61.8298C132.835 62.5232 131.275 62.8698 129.382 62.8698ZM159.079 62.8698C157.266 62.8698 155.652 62.4698 154.239 61.6698C152.826 60.8698 151.706 59.6698 150.879 58.0698C150.079 56.4432 149.679 54.3898 149.679 51.9098C149.679 49.4032 150.092 47.3498 150.919 45.7498C151.772 44.1498 152.906 42.9632 154.319 42.1898C155.759 41.3898 157.346 40.9898 159.079 40.9898C161.186 40.9898 163.039 41.4432 164.639 42.3498C166.266 43.2565 167.546 44.5232 168.479 46.1498C169.439 47.7765 169.919 49.6965 169.919 51.9098C169.919 54.1232 169.439 56.0432 168.479 57.6698C167.546 59.2965 166.266 60.5765 164.639 61.5098C163.039 62.4165 161.186 62.8698 159.079 62.8698ZM147.239 62.5898V32.9098H152.239V46.1898L151.839 51.8698L151.999 57.5498V62.5898H147.239ZM158.519 58.5898C159.719 58.5898 160.786 58.3232 161.719 57.7898C162.679 57.2565 163.439 56.4832 163.999 55.4698C164.559 54.4565 164.839 53.2698 164.839 51.9098C164.839 50.5232 164.559 49.3365 163.999 48.3498C163.439 47.3365 162.679 46.5632 161.719 46.0298C160.786 45.4965 159.719 45.2298 158.519 45.2298C157.319 45.2298 156.239 45.4965 155.279 46.0298C154.319 46.5632 153.559 47.3365 152.999 48.3498C152.439 49.3365 152.159 50.5232 152.159 51.9098C152.159 53.2698 152.439 54.4565 152.999 55.4698C153.559 56.4832 154.319 57.2565 155.279 57.7898C156.239 58.3232 157.319 58.5898 158.519 58.5898ZM177.852 62.5898V38.9898H168.572V34.5898H192.332V38.9898H183.052V62.5898H177.852ZM207.782 62.5898V58.2698L207.502 57.3498V49.7898C207.502 48.3232 207.062 47.1898 206.182 46.3898C205.302 45.5632 203.968 45.1498 202.182 45.1498C200.982 45.1498 199.795 45.3365 198.622 45.7098C197.475 46.0832 196.502 46.6032 195.702 47.2698L193.742 43.6298C194.888 42.7498 196.248 42.0965 197.822 41.6698C199.422 41.2165 201.075 40.9898 202.782 40.9898C205.875 40.9898 208.262 41.7365 209.942 43.2298C211.648 44.6965 212.502 46.9765 212.502 50.0698V62.5898H207.782ZM201.062 62.8698C199.462 62.8698 198.062 62.6032 196.862 62.0698C195.662 61.5098 194.728 60.7498 194.062 59.7898C193.422 58.8032 193.102 57.6965 193.102 56.4698C193.102 55.2698 193.382 54.1898 193.942 53.2298C194.528 52.2698 195.475 51.5098 196.782 50.9498C198.088 50.3898 199.822 50.1098 201.982 50.1098H208.182V53.4298H202.342C200.635 53.4298 199.488 53.7098 198.902 54.2698C198.315 54.8032 198.022 55.4698 198.022 56.2698C198.022 57.1765 198.382 57.8965 199.102 58.4298C199.822 58.9632 200.822 59.2298 202.102 59.2298C203.328 59.2298 204.422 58.9498 205.382 58.3898C206.368 57.8298 207.075 57.0032 207.502 55.9098L208.342 58.9098C207.862 60.1632 206.995 61.1365 205.742 61.8298C204.515 62.5232 202.955 62.8698 201.062 62.8698ZM225.519 62.8698C223.732 62.8698 222.012 62.6432 220.359 62.1898C218.732 61.7098 217.439 61.1365 216.479 60.4698L218.399 56.6698C219.359 57.2832 220.505 57.7898 221.839 58.1898C223.172 58.5898 224.505 58.7898 225.839 58.7898C227.412 58.7898 228.545 58.5765 229.239 58.1498C229.959 57.7232 230.319 57.1498 230.319 56.4298C230.319 55.8432 230.079 55.4032 229.599 55.1098C229.119 54.7898 228.492 54.5498 227.719 54.3898C226.945 54.2298 226.079 54.0832 225.119 53.9498C224.185 53.8165 223.239 53.6432 222.279 53.4298C221.345 53.1898 220.492 52.8565 219.719 52.4298C218.945 51.9765 218.319 51.3765 217.839 50.6298C217.359 49.8832 217.119 48.8965 217.119 47.6698C217.119 46.3098 217.505 45.1365 218.279 44.1498C219.052 43.1365 220.132 42.3632 221.519 41.8298C222.932 41.2698 224.599 40.9898 226.519 40.9898C227.959 40.9898 229.412 41.1498 230.879 41.4698C232.345 41.7898 233.559 42.2432 234.519 42.8298L232.599 46.6298C231.585 46.0165 230.559 45.6032 229.519 45.3898C228.505 45.1498 227.492 45.0298 226.479 45.0298C224.959 45.0298 223.825 45.2565 223.079 45.7098C222.359 46.1632 221.999 46.7365 221.999 47.4298C221.999 48.0698 222.239 48.5498 222.719 48.8698C223.199 49.1898 223.825 49.4432 224.599 49.6298C225.372 49.8165 226.225 49.9765 227.159 50.1098C228.119 50.2165 229.065 50.3898 229.999 50.6298C230.932 50.8698 231.785 51.2032 232.559 51.6298C233.359 52.0298 233.999 52.6032 234.479 53.3498C234.959 54.0965 235.199 55.0698 235.199 56.2698C235.199 57.6032 234.799 58.7632 233.999 59.7498C233.225 60.7365 232.119 61.5098 230.679 62.0698C229.239 62.6032 227.519 62.8698 225.519 62.8698ZM243.585 57.8298L243.705 51.5498L254.865 41.2298H260.865L251.385 50.7498L248.745 52.9498L243.585 57.8298ZM239.505 62.5898V32.9098H244.505V62.5898H239.505ZM255.625 62.5898L247.825 52.9498L250.985 48.9498L261.705 62.5898H255.625ZM270.87 62.8698C269.084 62.8698 267.364 62.6432 265.71 62.1898C264.084 61.7098 262.79 61.1365 261.83 60.4698L263.75 56.6698C264.71 57.2832 265.857 57.7898 267.19 58.1898C268.524 58.5898 269.857 58.7898 271.19 58.7898C272.764 58.7898 273.897 58.5765 274.59 58.1498C275.31 57.7232 275.67 57.1498 275.67 56.4298C275.67 55.8432 275.43 55.4032 274.95 55.1098C274.47 54.7898 273.844 54.5498 273.07 54.3898C272.297 54.2298 271.43 54.0832 270.47 53.9498C269.537 53.8165 268.59 53.6432 267.63 53.4298C266.697 53.1898 265.844 52.8565 265.07 52.4298C264.297 51.9765 263.67 51.3765 263.19 50.6298C262.71 49.8832 262.47 48.8965 262.47 47.6698C262.47 46.3098 262.857 45.1365 263.63 44.1498C264.404 43.1365 265.484 42.3632 266.87 41.8298C268.284 41.2698 269.95 40.9898 271.87 40.9898C273.31 40.9898 274.764 41.1498 276.23 41.4698C277.697 41.7898 278.91 42.2432 279.87 42.8298L277.95 46.6298C276.937 46.0165 275.91 45.6032 274.87 45.3898C273.857 45.1498 272.844 45.0298 271.83 45.0298C270.31 45.0298 269.177 45.2565 268.43 45.7098C267.71 46.1632 267.35 46.7365 267.35 47.4298C267.35 48.0698 267.59 48.5498 268.07 48.8698C268.55 49.1898 269.177 49.4432 269.95 49.6298C270.724 49.8165 271.577 49.9765 272.51 50.1098C273.47 50.2165 274.417 50.3898 275.35 50.6298C276.284 50.8698 277.137 51.2032 277.91 51.6298C278.71 52.0298 279.35 52.6032 279.83 53.3498C280.31 54.0965 280.55 55.0698 280.55 56.2698C280.55 57.6032 280.15 58.7632 279.35 59.7498C278.577 60.7365 277.47 61.5098 276.03 62.0698C274.59 62.6032 272.87 62.8698 270.87 62.8698Z" fill="white"/>
<path d="M26.944 62.64C23.4453 62.64 20.224 62.0853 17.28 60.976C14.3787 59.824 11.84 58.224 9.664 56.176C7.488 54.0853 5.80267 51.632 4.608 48.816C3.41333 46 2.816 42.928 2.816 39.6C2.816 36.272 3.41333 33.2 4.608 30.384C5.80267 27.568 7.488 25.136 9.664 23.088C11.8827 20.9973 14.464 19.3973 17.408 18.288C20.352 17.136 23.5733 16.56 27.072 16.56C30.8693 16.56 34.2827 17.1787 37.312 18.416C40.384 19.6533 42.9653 21.4667 45.056 23.856L39.808 28.976C38.0587 27.2267 36.16 25.9467 34.112 25.136C32.1067 24.2827 29.888 23.856 27.456 23.856C25.1093 23.856 22.9333 24.24 20.928 25.008C18.9227 25.776 17.1947 26.864 15.744 28.272C14.2933 29.68 13.1627 31.344 12.352 33.264C11.584 35.184 11.2 37.296 11.2 39.6C11.2 41.8613 11.584 43.952 12.352 45.872C13.1627 47.792 14.2933 49.4773 15.744 50.928C17.1947 52.336 18.9013 53.424 20.864 54.192C22.8267 54.96 25.0027 55.344 27.392 55.344C29.6107 55.344 31.744 55.0027 33.792 54.32C35.8827 53.5947 37.8667 52.4 39.744 50.736L44.48 56.944C42.1333 58.8213 39.4027 60.2507 36.288 61.232C33.216 62.1707 30.1013 62.64 26.944 62.64ZM36.608 55.856V39.088H44.48V56.944L36.608 55.856ZM50.4615 62V24.24H35.6135V17.2H73.6295V24.24H58.7815V62H50.4615Z" fill="#2DBA4E"/>
</svg>
