<svg width="78" height="80" viewBox="0 0 78 80" fill="none" xmlns="http://www.w3.org/2000/svg">
<path d="M26.944 62.64C23.4453 62.64 20.224 62.0853 17.28 60.976C14.3787 59.824 11.84 58.224 9.664 56.176C7.488 54.0853 5.80267 51.632 4.608 48.816C3.41333 46 2.816 42.928 2.816 39.6C2.816 36.272 3.41333 33.2 4.608 30.384C5.80267 27.568 7.488 25.136 9.664 23.088C11.8827 20.9973 14.464 19.3973 17.408 18.288C20.352 17.136 23.5733 16.56 27.072 16.56C30.8693 16.56 34.2827 17.1787 37.312 18.416C40.384 19.6533 42.9653 21.4667 45.056 23.856L39.808 28.976C38.0587 27.2267 36.16 25.9467 34.112 25.136C32.1067 24.2827 29.888 23.856 27.456 23.856C25.1093 23.856 22.9333 24.24 20.928 25.008C18.9227 25.776 17.1947 26.864 15.744 28.272C14.2933 29.68 13.1627 31.344 12.352 33.264C11.584 35.184 11.2 37.296 11.2 39.6C11.2 41.8613 11.584 43.952 12.352 45.872C13.1627 47.792 14.2933 49.4773 15.744 50.928C17.1947 52.336 18.9013 53.424 20.864 54.192C22.8267 54.96 25.0027 55.344 27.392 55.344C29.6107 55.344 31.744 55.0027 33.792 54.32C35.8827 53.5947 37.8667 52.4 39.744 50.736L44.48 56.944C42.1333 58.8213 39.4027 60.2507 36.288 61.232C33.216 62.1707 30.1013 62.64 26.944 62.64ZM36.608 55.856V39.088H44.48V56.944L36.608 55.856ZM50.4615 62V24.24H35.6135V17.2H73.6295V24.24H58.7815V62H50.4615Z" fill="#2DBA4E"/>
</svg>
