<svg width="215" height="65" viewBox="0 0 215 65" fill="none" xmlns="http://www.w3.org/2000/svg">
<path d="M51.7367 18V22.88H43.1767V46H38.2967V22.88H29.7367V18H51.7367ZM61.4852 46.52C59.6452 46.52 57.9652 46.0467 56.4452 45.1C54.9385 44.1533 53.7318 42.88 52.8252 41.28C51.9318 39.68 51.4852 37.9133 51.4852 35.98C51.4852 34.5267 51.7452 33.1667 52.2652 31.9C52.7852 30.62 53.4985 29.5 54.4052 28.54C55.3252 27.5667 56.3918 26.8067 57.6052 26.26C58.8185 25.7133 60.1118 25.44 61.4852 25.44C63.0452 25.44 64.4718 25.7733 65.7652 26.44C67.0718 27.0933 68.1785 27.9933 69.0852 29.14C69.9918 30.2867 70.6518 31.5933 71.0652 33.06C71.4785 34.5267 71.5718 36.06 71.3452 37.66H56.7252C56.9118 38.4067 57.2185 39.08 57.6452 39.68C58.0718 40.2667 58.6118 40.74 59.2652 41.1C59.9185 41.4467 60.6585 41.6267 61.4852 41.64C62.3385 41.6533 63.1118 41.4533 63.8052 41.04C64.5118 40.6133 65.0985 40.04 65.5652 39.32L70.5452 40.48C69.7318 42.2533 68.5185 43.7067 66.9052 44.84C65.2918 45.96 63.4852 46.52 61.4852 46.52ZM56.5652 34H66.4052C66.2585 33.2 65.9452 32.48 65.4652 31.84C64.9985 31.1867 64.4185 30.6667 63.7252 30.28C63.0318 29.8933 62.2852 29.7 61.4852 29.7C60.6852 29.7 59.9452 29.8933 59.2652 30.28C58.5852 30.6533 58.0052 31.1667 57.5252 31.82C57.0585 32.46 56.7385 33.1867 56.5652 34ZM74.6192 46L74.5992 26H79.4792L79.4992 27.78C80.1792 27.06 80.9926 26.4933 81.9392 26.08C82.8859 25.6533 83.9059 25.44 84.9992 25.44C85.7326 25.44 86.4659 25.5467 87.1992 25.76L85.2792 30.68C84.7726 30.48 84.2659 30.38 83.7592 30.38C82.9726 30.38 82.2526 30.5733 81.5992 30.96C80.9592 31.3333 80.4459 31.8467 80.0592 32.5C79.6859 33.14 79.4992 33.8533 79.4992 34.64V46H74.6192ZM89.5211 46V26H94.4011V27.78C95.0811 27.06 95.8944 26.4933 96.8411 26.08C97.7878 25.6533 98.8078 25.44 99.9011 25.44C101.288 25.44 102.561 25.7667 103.721 26.42C104.894 27.0733 105.828 27.9467 106.521 29.04C107.228 27.9467 108.161 27.0733 109.321 26.42C110.481 25.7667 111.754 25.44 113.141 25.44C114.608 25.44 115.934 25.8 117.121 26.52C118.321 27.2267 119.274 28.18 119.981 29.38C120.701 30.5667 121.061 31.8933 121.061 33.36V46H116.181V34.66C116.181 33.8867 115.988 33.18 115.601 32.54C115.228 31.8867 114.721 31.3667 114.081 30.98C113.454 30.58 112.748 30.38 111.961 30.38C111.174 30.38 110.461 30.5733 109.821 30.96C109.194 31.3333 108.688 31.84 108.301 32.48C107.914 33.12 107.721 33.8467 107.721 34.66V46H102.841V34.66C102.841 33.8467 102.654 33.12 102.281 32.48C101.908 31.84 101.401 31.3333 100.761 30.96C100.121 30.5733 99.4078 30.38 98.6211 30.38C97.8478 30.38 97.1411 30.58 96.5011 30.98C95.8611 31.3667 95.3478 31.8867 94.9611 32.54C94.5878 33.18 94.4011 33.8867 94.4011 34.66V46H89.5211ZM125.068 26H129.948V46H125.068V26ZM127.548 23.42C126.828 23.42 126.221 23.1867 125.728 22.72C125.235 22.24 124.988 21.64 124.988 20.92C124.988 20.2133 125.235 19.62 125.728 19.14C126.221 18.66 126.821 18.42 127.528 18.42C128.235 18.42 128.828 18.66 129.308 19.14C129.801 19.62 130.048 20.2133 130.048 20.92C130.048 21.64 129.808 22.24 129.328 22.72C128.848 23.1867 128.255 23.42 127.548 23.42ZM152.919 33.36V46H148.039V34.64C148.039 33.8533 147.846 33.14 147.459 32.5C147.073 31.8467 146.553 31.3333 145.899 30.96C145.259 30.5733 144.546 30.38 143.759 30.38C142.973 30.38 142.253 30.5733 141.599 30.96C140.959 31.3333 140.446 31.8467 140.059 32.5C139.686 33.14 139.499 33.8533 139.499 34.64V46H134.619L134.599 26H139.479L139.499 27.78C140.179 27.06 140.993 26.4933 141.939 26.08C142.886 25.6533 143.906 25.44 144.999 25.44C146.453 25.44 147.779 25.8 148.979 26.52C150.179 27.2267 151.133 28.18 151.839 29.38C152.559 30.5667 152.919 31.8933 152.919 33.36ZM171.593 26H176.473V46H171.593L171.373 43.52C170.827 44.4133 170.1 45.14 169.193 45.7C168.3 46.2467 167.24 46.52 166.013 46.52C164.533 46.52 163.147 46.24 161.853 45.68C160.56 45.12 159.42 44.3467 158.433 43.36C157.46 42.3733 156.693 41.2333 156.133 39.94C155.587 38.6467 155.313 37.26 155.313 35.78C155.313 34.3533 155.573 33.0133 156.093 31.76C156.627 30.5067 157.367 29.4067 158.313 28.46C159.26 27.5133 160.353 26.7733 161.593 26.24C162.833 25.7067 164.167 25.44 165.593 25.44C166.913 25.44 168.093 25.7333 169.133 26.32C170.187 26.9067 171.08 27.6533 171.813 28.56L171.593 26ZM165.893 41.82C166.933 41.82 167.853 41.56 168.653 41.04C169.453 40.52 170.08 39.82 170.533 38.94C170.987 38.0467 171.213 37.0667 171.213 36C171.213 34.92 170.987 33.94 170.533 33.06C170.08 32.1667 169.447 31.46 168.633 30.94C167.833 30.42 166.92 30.16 165.893 30.16C164.867 30.16 163.927 30.4267 163.073 30.96C162.233 31.48 161.56 32.18 161.053 33.06C160.56 33.94 160.313 34.92 160.313 36C160.313 37.08 160.567 38.06 161.073 38.94C161.58 39.82 162.253 40.52 163.093 41.04C163.947 41.56 164.88 41.82 165.893 41.82ZM180.576 46V16H185.456V46H180.576Z" fill="#BB0F4D"/>
</svg>
