<svg width="215" height="65" viewBox="0 0 215 65" fill="none" xmlns="http://www.w3.org/2000/svg">
<path d="M36.9795 19.28V22.64H28.2595V47H24.3795V22.64H15.6595V19.28H36.9795ZM57.0092 36.6C57.0092 38.2533 56.7692 39.7467 56.2892 41.08C55.8092 42.4133 55.1292 43.56 54.2492 44.52C53.3959 45.48 52.3692 46.2267 51.1692 46.76C49.9692 47.2667 48.6626 47.52 47.2492 47.52C45.8359 47.52 44.5292 47.2667 43.3292 46.76C42.1292 46.2267 41.0892 45.48 40.2092 44.52C39.3559 43.56 38.6892 42.4133 38.2092 41.08C37.7292 39.7467 37.4892 38.2533 37.4892 36.6C37.4892 34.9733 37.7292 33.4933 38.2092 32.16C38.6892 30.8 39.3559 29.64 40.2092 28.68C41.0892 27.72 42.1292 26.9867 43.3292 26.48C44.5292 25.9467 45.8359 25.68 47.2492 25.68C48.6626 25.68 49.9692 25.9467 51.1692 26.48C52.3692 26.9867 53.3959 27.72 54.2492 28.68C55.1292 29.64 55.8092 30.8 56.2892 32.16C56.7692 33.4933 57.0092 34.9733 57.0092 36.6ZM53.1292 36.6C53.1292 34.2533 52.5959 32.4 51.5292 31.04C50.4892 29.6533 49.0626 28.96 47.2492 28.96C45.4359 28.96 43.9959 29.6533 42.9292 31.04C41.8892 32.4 41.3692 34.2533 41.3692 36.6C41.3692 38.9467 41.8892 40.8133 42.9292 42.2C43.9959 43.56 45.4359 44.24 47.2492 44.24C49.0626 44.24 50.4892 43.56 51.5292 42.2C52.5959 40.8133 53.1292 38.9467 53.1292 36.6ZM75.683 30.6C75.2296 30.2267 74.5763 29.8667 73.723 29.52C72.8696 29.1733 71.9363 29 70.923 29C69.8563 29 68.9363 29.2 68.163 29.6C67.4163 29.9733 66.803 30.5067 66.323 31.2C65.843 31.8667 65.4963 32.6667 65.283 33.6C65.0696 34.5333 64.963 35.5333 64.963 36.6C64.963 39.0267 65.563 40.9067 66.763 42.24C67.963 43.5467 69.563 44.2 71.563 44.2C72.5763 44.2 73.4163 44.16 74.083 44.08C74.7763 43.9733 75.3096 43.8667 75.683 43.76V30.6ZM75.683 16.6L79.403 15.96V46.4C78.5496 46.64 77.4563 46.88 76.123 47.12C74.7896 47.36 73.2563 47.48 71.523 47.48C69.923 47.48 68.483 47.2267 67.203 46.72C65.923 46.2133 64.8296 45.4933 63.923 44.56C63.0163 43.6267 62.3096 42.4933 61.803 41.16C61.323 39.8 61.083 38.28 61.083 36.6C61.083 35 61.283 33.5333 61.683 32.2C62.1096 30.8667 62.723 29.72 63.523 28.76C64.323 27.8 65.2963 27.0533 66.443 26.52C67.6163 25.9867 68.9496 25.72 70.443 25.72C71.643 25.72 72.6963 25.88 73.603 26.2C74.5363 26.52 75.2296 26.8267 75.683 27.12V16.6ZM104.158 36.6C104.158 38.2533 103.918 39.7467 103.438 41.08C102.958 42.4133 102.278 43.56 101.398 44.52C100.544 45.48 99.5177 46.2267 98.3177 46.76C97.1177 47.2667 95.811 47.52 94.3977 47.52C92.9843 47.52 91.6777 47.2667 90.4777 46.76C89.2777 46.2267 88.2377 45.48 87.3577 44.52C86.5043 43.56 85.8377 42.4133 85.3577 41.08C84.8777 39.7467 84.6377 38.2533 84.6377 36.6C84.6377 34.9733 84.8777 33.4933 85.3577 32.16C85.8377 30.8 86.5043 29.64 87.3577 28.68C88.2377 27.72 89.2777 26.9867 90.4777 26.48C91.6777 25.9467 92.9843 25.68 94.3977 25.68C95.811 25.68 97.1177 25.9467 98.3177 26.48C99.5177 26.9867 100.544 27.72 101.398 28.68C102.278 29.64 102.958 30.8 103.438 32.16C103.918 33.4933 104.158 34.9733 104.158 36.6ZM100.278 36.6C100.278 34.2533 99.7443 32.4 98.6777 31.04C97.6377 29.6533 96.211 28.96 94.3977 28.96C92.5843 28.96 91.1443 29.6533 90.0777 31.04C89.0377 32.4 88.5177 34.2533 88.5177 36.6C88.5177 38.9467 89.0377 40.8133 90.0777 42.2C91.1443 43.56 92.5843 44.24 94.3977 44.24C96.211 44.24 97.6377 43.56 98.6777 42.2C99.7443 40.8133 100.278 38.9467 100.278 36.6ZM117.111 47.24C116.551 47.24 115.938 47.2267 115.271 47.2C114.631 47.1733 113.978 47.1333 113.311 47.08C112.671 47.0267 112.031 46.96 111.391 46.88C110.751 46.8 110.165 46.6933 109.631 46.56V19.68C110.165 19.5467 110.751 19.44 111.391 19.36C112.031 19.28 112.671 19.2133 113.311 19.16C113.978 19.1067 114.631 19.0667 115.271 19.04C115.911 19.0133 116.511 19 117.071 19C118.671 19 120.165 19.12 121.551 19.36C122.965 19.6 124.178 20.0133 125.191 20.6C126.231 21.16 127.045 21.9067 127.631 22.84C128.218 23.7733 128.511 24.92 128.511 26.28C128.511 27.8 128.151 29.0533 127.431 30.04C126.711 31 125.751 31.72 124.551 32.2C126.178 32.68 127.471 33.44 128.431 34.48C129.391 35.52 129.871 36.9867 129.871 38.88C129.871 41.6533 128.845 43.7467 126.791 45.16C124.765 46.5467 121.538 47.24 117.111 47.24ZM113.471 34.08V43.84C113.765 43.8667 114.111 43.8933 114.511 43.92C114.858 43.9467 115.258 43.9733 115.711 44C116.191 44 116.738 44 117.351 44C118.498 44 119.578 43.9333 120.591 43.8C121.631 43.64 122.538 43.3733 123.311 43C124.085 42.6267 124.698 42.1067 125.151 41.44C125.631 40.7733 125.871 39.9333 125.871 38.92C125.871 38.0133 125.698 37.2533 125.351 36.64C125.005 36 124.498 35.4933 123.831 35.12C123.191 34.7467 122.418 34.48 121.511 34.32C120.605 34.16 119.591 34.08 118.471 34.08H113.471ZM113.471 30.96H117.551C118.511 30.96 119.418 30.8933 120.271 30.76C121.125 30.6267 121.858 30.3867 122.471 30.04C123.111 29.6933 123.605 29.24 123.951 28.68C124.325 28.12 124.511 27.4133 124.511 26.56C124.511 25.76 124.325 25.0933 123.951 24.56C123.578 24 123.058 23.56 122.391 23.24C121.751 22.8933 120.991 22.64 120.111 22.48C119.231 22.32 118.298 22.24 117.311 22.24C116.325 22.24 115.551 22.2533 114.991 22.28C114.431 22.3067 113.925 22.3467 113.471 22.4V30.96ZM153.455 36.6C153.455 38.2533 153.215 39.7467 152.735 41.08C152.255 42.4133 151.575 43.56 150.695 44.52C149.841 45.48 148.815 46.2267 147.615 46.76C146.415 47.2667 145.108 47.52 143.695 47.52C142.281 47.52 140.975 47.2667 139.775 46.76C138.575 46.2267 137.535 45.48 136.655 44.52C135.801 43.56 135.135 42.4133 134.655 41.08C134.175 39.7467 133.935 38.2533 133.935 36.6C133.935 34.9733 134.175 33.4933 134.655 32.16C135.135 30.8 135.801 29.64 136.655 28.68C137.535 27.72 138.575 26.9867 139.775 26.48C140.975 25.9467 142.281 25.68 143.695 25.68C145.108 25.68 146.415 25.9467 147.615 26.48C148.815 26.9867 149.841 27.72 150.695 28.68C151.575 29.64 152.255 30.8 152.735 32.16C153.215 33.4933 153.455 34.9733 153.455 36.6ZM149.575 36.6C149.575 34.2533 149.041 32.4 147.975 31.04C146.935 29.6533 145.508 28.96 143.695 28.96C141.881 28.96 140.441 29.6533 139.375 31.04C138.335 32.4 137.815 34.2533 137.815 36.6C137.815 38.9467 138.335 40.8133 139.375 42.2C140.441 43.56 141.881 44.24 143.695 44.24C145.508 44.24 146.935 43.56 147.975 42.2C149.041 40.8133 149.575 38.9467 149.575 36.6ZM177.048 36.6C177.048 38.2533 176.808 39.7467 176.328 41.08C175.848 42.4133 175.168 43.56 174.288 44.52C173.435 45.48 172.408 46.2267 171.208 46.76C170.008 47.2667 168.702 47.52 167.288 47.52C165.875 47.52 164.568 47.2667 163.368 46.76C162.168 46.2267 161.128 45.48 160.248 44.52C159.395 43.56 158.728 42.4133 158.248 41.08C157.768 39.7467 157.528 38.2533 157.528 36.6C157.528 34.9733 157.768 33.4933 158.248 32.16C158.728 30.8 159.395 29.64 160.248 28.68C161.128 27.72 162.168 26.9867 163.368 26.48C164.568 25.9467 165.875 25.68 167.288 25.68C168.702 25.68 170.008 25.9467 171.208 26.48C172.408 26.9867 173.435 27.72 174.288 28.68C175.168 29.64 175.848 30.8 176.328 32.16C176.808 33.4933 177.048 34.9733 177.048 36.6ZM173.168 36.6C173.168 34.2533 172.635 32.4 171.568 31.04C170.528 29.6533 169.102 28.96 167.288 28.96C165.475 28.96 164.035 29.6533 162.968 31.04C161.928 32.4 161.408 34.2533 161.408 36.6C161.408 38.9467 161.928 40.8133 162.968 42.2C164.035 43.56 165.475 44.24 167.288 44.24C169.102 44.24 170.528 43.56 171.568 42.2C172.635 40.8133 173.168 38.9467 173.168 36.6ZM189.802 35.56C190.602 36.1733 191.442 36.9333 192.322 37.84C193.229 38.7467 194.109 39.7333 194.962 40.8C195.842 41.84 196.669 42.9067 197.442 44C198.215 45.0667 198.869 46.0667 199.402 47H195.042C194.482 46.0667 193.829 45.12 193.082 44.16C192.362 43.1733 191.602 42.24 190.802 41.36C190.002 40.4533 189.189 39.6267 188.362 38.88C187.535 38.1333 186.749 37.5067 186.002 37V47H182.282V16.6L186.002 15.96V34.92C186.642 34.28 187.349 33.5733 188.122 32.8C188.895 32.0267 189.655 31.24 190.402 30.44C191.149 29.64 191.855 28.88 192.522 28.16C193.189 27.4133 193.762 26.76 194.242 26.2H198.602C197.989 26.8667 197.322 27.6 196.602 28.4C195.882 29.2 195.135 30.0133 194.362 30.84C193.589 31.64 192.802 32.4533 192.002 33.28C191.229 34.08 190.495 34.84 189.802 35.56Z" fill="#FD6C03"/>
</svg>
